<svg width="864" height="1061" viewBox="0 0 864 1061" fill="none" xmlns="http://www.w3.org/2000/svg">
<mask id="mask0_2119_959" style="mask-type:luminance" maskUnits="userSpaceOnUse" x="0" y="0" width="864" height="1061">
<path d="M864 0H0V1061H864V0Z" fill="white"/>
</mask>
<g mask="url(#mask0_2119_959)">
<path d="M654.477 537.179C654.477 538.583 653.994 539.942 653.076 541.17C651.53 543.319 649.211 544.853 646.07 545.599C644.911 545.906 643.703 545.95 642.398 545.906C641.529 545.862 641.045 545.467 641.045 544.722C641.045 544.415 641.094 544.108 641.094 543.801C641.625 541.258 643.316 539.328 645.925 537.881C647.761 536.785 649.839 536.171 652.158 536.039H653.366C654.042 536.171 654.429 536.521 654.429 537.135L654.477 537.179Z" fill="white" stroke="#231815" stroke-width="2" stroke-miterlimit="10"/>
<path d="M661.048 557.835C658.149 558.931 656.12 560.729 655.298 563.228C654.139 566.737 655.588 570.201 659.453 571.78C659.598 571.911 659.792 571.955 659.937 572.043C660.903 572.394 661 572.92 660.468 573.709C658.632 576.253 656.41 578.577 653.849 580.77C652.206 582.129 650.515 583.401 648.244 584.234C647.519 584.541 646.553 584.716 645.683 584.892H643.847C642.495 584.585 641.142 584.322 639.837 583.927C637.373 583.138 634.764 583.05 631.962 583.752C630.126 584.19 628.29 584.673 626.405 585.111H624.086C622.927 584.848 621.719 584.629 620.753 584.19C618.868 583.445 617.515 582.304 616.259 580.989C612.925 577.481 610.703 573.49 609.833 569.061C609.157 565.377 609.447 561.606 611.234 557.922C612.925 554.589 615.969 552.134 620.173 550.336C622.492 549.415 625.004 548.801 627.613 548.669C630.319 548.538 632.88 549.108 635.296 549.941C636.503 550.38 637.76 550.818 639.016 551.169C640.417 551.607 641.867 551.607 643.268 551.344C645.249 550.993 647.133 550.686 649.017 550.467C652.351 550.204 655.25 550.906 657.762 552.353C659.405 553.274 660.661 554.458 661.773 555.73C662.497 556.607 662.304 557.264 661.048 557.747V557.835Z" fill="white" stroke="#231815" stroke-width="2" stroke-miterlimit="10"/>
<path d="M716.514 396.938C716.321 404.437 715.983 412.023 715.548 419.566C715.065 429.608 714.533 439.607 714.05 449.649L471.118 450.088C454.594 450.132 437.974 461.84 434.109 476.224L402.848 592.829L385.745 656.635C384.053 663.169 385.261 669.309 389.223 673.869C393.378 678.649 399.998 681.237 407.922 681.237H694.096C689.409 719.301 684.046 757.278 677.427 795.123C676.026 803.323 674.77 811.568 672.837 819.593C660.71 869.234 703.662 928.129 689.023 932.909C664.333 940.978 589.299 901.642 563.981 898.747C536.78 895.59 570.069 955.975 529.436 954.923C495.276 954.046 506.244 905.764 465.659 905.764C431.838 905.764 415.362 969.789 368.447 969.789C337.67 969.789 325.06 905.764 284.378 905.764C258.481 905.764 239.927 945.056 208.474 942.074C180.692 939.443 173.107 910.456 156.196 905.764C142.281 901.905 121.071 923.129 90.7767 929.137C70.8706 933.128 62.8018 928.26 55.1679 921.945C55.1679 921.945 37.1461 901.291 71.6919 874.804C139.817 822.619 82.5147 631.551 96.4296 530.514C102.711 484.556 112.277 443.203 124.501 406.191C124.839 405.095 125.226 403.911 125.661 402.814C147.838 336.2 178.47 283.445 213.354 242.179C213.499 241.916 213.644 241.741 213.837 241.565C214.175 241.127 214.513 240.688 214.9 240.337C215.093 240.03 215.286 239.767 215.576 239.548C219.49 234.856 223.597 230.383 227.704 225.997C228.573 225.033 229.54 224.024 230.506 223.103C230.989 222.621 231.521 222.051 232.004 221.568C234.903 218.542 237.898 215.604 240.894 212.71C273.314 181.355 308.246 158.376 343.033 142.151C343.082 142.151 343.178 142.151 343.227 142.107C426.33 103.341 507.887 103.209 549.97 118.777C551.129 118.821 565.624 123.338 585.579 133.906C615.148 149.737 656.603 179.075 684.191 228.322C687.38 233.935 690.279 239.811 693.081 245.994C706.851 276.867 713.422 310.02 715.838 343.129C717.143 361.021 717.046 378.914 716.466 396.894L716.514 396.938Z" fill="white" stroke="#231815" stroke-width="2" stroke-miterlimit="10"/>
<path d="M216.736 398.429C212.146 402.77 206.976 406.454 201.517 409.392C193.979 413.426 185.814 416.014 177.021 416.978C130.927 421.978 86.67 379.484 78.1181 322.082C69.6146 264.767 100.102 214.16 146.195 209.249C146.968 209.161 147.693 209.117 148.466 209.073C157.694 208.328 166.826 209.512 175.523 212.362C209.779 223.369 238.382 259.153 245.001 304.103C250.702 342.474 239.01 377.774 216.736 398.429Z" fill="#231815" stroke="#231815" stroke-width="2" stroke-linejoin="round"/>
<path d="M235.54 396.149C232.013 395.754 228.728 397.684 225.104 398.035C221.867 398.385 218.533 398.517 215.344 398.429C237.569 377.775 249.31 342.517 243.609 304.102C236.99 259.152 208.338 223.368 174.131 212.361C181.137 209.072 188.674 206.924 196.694 206.046C199.11 205.783 206.744 205.74 209.16 205.783C252.499 205.389 286.948 242.795 294.292 293.095C301.588 341.991 275.449 400.71 235.492 396.193L235.54 396.149Z" fill="#9F9FA0" stroke="#231815" stroke-width="2" stroke-linejoin="round"/>
<path d="M724.346 391.807C715.408 398.209 707.726 402.682 699.802 402.2C700.333 371.852 699.995 342.295 698.497 314.448C696.758 281.427 689.269 253.098 678.35 228.935C696.178 225.909 716.084 234.548 729.854 247.003C748.359 263.798 755.413 288.268 757.587 310.852C760.39 340.453 751.5 372.247 724.298 391.763L724.346 391.807Z" fill="#231815" stroke="#231815" stroke-miterlimit="10"/>
<path d="M611.191 116.366C606.891 120.269 600.561 122.023 594.474 120.839C564.228 115.138 468.08 99.7461 377.004 114.218C326.756 122.199 262.931 145.704 241.382 153.948C236.985 155.615 231.912 154.387 229.158 151.01L215.05 133.601C211.909 129.742 211.378 124.742 213.697 120.445C222.925 103.298 253.171 60.9801 328.302 44.1406C389.856 30.3269 438.8 26.9941 482.478 30.8531C570.364 38.6151 609.838 75.1008 620.661 92.3788C624.333 98.2551 623.173 105.491 617.81 110.359L611.191 116.366Z" fill="#231815" stroke="#231815" stroke-miterlimit="10"/>
<path d="M177.847 212.757C178.185 211.967 178.523 211.09 178.91 210.301C180.262 207.1 181.615 204.074 182.968 201.136C196.4 172.456 210.605 153.95 221.959 142.241" stroke="#231815" stroke-width="3" stroke-linecap="round" stroke-linejoin="round"/>
<path d="M607.857 111.278C607.857 111.278 686.322 150.307 687.626 226.305" stroke="#231815" stroke-width="3" stroke-linecap="round" stroke-linejoin="round"/>
<path d="M236.937 396.149C227.274 403.297 216.016 407.857 203.744 409.173C203.019 409.261 202.246 409.304 201.521 409.348C206.981 406.41 212.151 402.727 216.741 398.385C238.966 377.73 250.707 342.471 245.006 304.056C238.386 259.107 209.735 223.323 175.527 212.316C166.831 209.465 157.699 208.281 148.471 209.027C155.911 204.992 164.173 202.405 172.967 201.44C184.079 200.256 195.047 201.791 205.387 205.606C238.241 217.753 265.25 252.748 271.821 296.338C278.005 338.305 263.366 376.678 236.985 396.149H236.937Z" fill="#535354" stroke="#231815" stroke-width="2" stroke-linejoin="round"/>
<path d="M345.647 676.72C330.331 672.027 304.676 663.432 290.809 658.345C281.339 654.881 252.205 642.646 252.205 642.646C228.433 633.919 223.94 624.272 242.155 621.07L369.757 598.661C381.836 596.557 392.224 606.467 389.325 617.299L379.179 655.232C374.975 673.08 385.025 673.606 385.025 680.579C385.025 685.885 355.021 679.658 345.599 676.764L345.647 676.72Z" fill="#231815"/>
<path d="M650.38 537.179C650.331 538.583 649.8 539.942 648.785 541.17C647.143 543.319 644.823 544.853 641.731 545.599C640.572 545.906 639.364 545.95 638.108 545.906C637.238 545.862 636.803 545.467 636.851 544.722C636.851 544.415 636.948 544.108 636.948 543.801C637.576 541.258 639.364 539.328 641.973 537.881C643.809 536.785 645.935 536.171 648.206 536.039H649.413C650.09 536.171 650.476 536.521 650.428 537.135L650.38 537.179Z" fill="#231815"/>
<path d="M655.839 557.835C652.94 558.931 650.863 560.729 649.945 563.228C648.64 566.737 649.896 570.201 653.568 571.78C653.713 571.911 653.907 571.955 654.003 572.043C654.921 572.394 655.018 572.92 654.438 573.709C652.505 576.253 650.235 578.577 647.626 580.77C645.983 582.129 644.243 583.401 641.973 584.234C641.248 584.541 640.282 584.716 639.412 584.892H637.624C636.32 584.585 635.015 584.322 633.759 583.927C631.391 583.138 628.831 583.05 626.077 583.752C624.289 584.19 622.453 584.673 620.569 585.111H618.298C617.187 584.848 616.027 584.629 615.109 584.19C613.273 583.445 612.017 582.304 610.857 580.989C607.765 577.481 605.736 573.49 605.011 569.061C604.48 565.377 604.914 561.606 606.847 557.922C608.635 554.589 611.727 552.134 615.93 550.336C618.25 549.415 620.714 548.801 623.323 548.669C625.98 548.538 628.492 549.108 630.812 549.941C631.971 550.38 633.179 550.818 634.435 551.169C635.836 551.607 637.189 551.607 638.639 551.344C640.571 550.993 642.456 550.686 644.34 550.467C647.626 550.204 650.428 550.906 652.844 552.353C654.39 553.274 655.598 554.458 656.612 555.73C657.289 556.607 657.047 557.264 655.791 557.747L655.839 557.835Z" fill="#231815"/>
<path d="M855.47 456.753C851.654 452.017 845.372 449.43 837.642 449.43H837.594L714.098 449.693L471.167 450.131C454.643 450.175 437.925 461.884 433.915 476.268L402.462 592.873L385.793 656.679C384.15 663.213 385.358 669.352 389.127 673.913C393.088 678.693 399.466 681.28 407.052 681.28H763.091C779.132 681.28 795.849 669.571 800.294 655.188L857.935 474.207C860.061 467.541 859.191 461.402 855.519 456.797L855.47 456.753ZM636.89 543.801C637.518 541.258 639.306 539.328 641.915 537.881C643.751 536.785 645.877 536.171 648.147 536.039H649.355C650.032 536.171 650.418 536.522 650.37 537.136C650.322 538.539 649.79 539.898 648.776 541.126C647.133 543.275 644.814 544.81 641.721 545.555C640.562 545.862 639.354 545.906 638.098 545.862C637.228 545.818 636.793 545.424 636.842 544.678C636.842 544.371 636.938 544.064 636.938 543.757L636.89 543.801ZM655.83 557.834C652.931 558.93 650.853 560.728 649.935 563.228C648.631 566.736 649.887 570.201 653.559 571.779C653.704 571.911 653.897 571.955 653.994 572.042C654.912 572.393 655.008 572.92 654.428 573.709C652.496 576.252 650.225 578.577 647.616 580.769C645.973 582.129 644.234 583.4 641.963 584.234C641.238 584.541 640.272 584.716 639.402 584.891H637.615C636.31 584.584 635.006 584.321 633.749 583.927C631.382 583.137 628.821 583.05 626.067 583.751C624.279 584.19 622.443 584.672 620.559 585.111H618.288C617.177 584.848 616.017 584.628 615.099 584.19C613.263 583.444 612.007 582.304 610.848 580.989C607.755 577.48 605.726 573.49 605.001 569.061C604.47 565.377 604.905 561.606 606.837 557.922C608.625 554.589 611.717 552.133 615.921 550.335C618.24 549.414 620.704 548.8 623.313 548.669C625.97 548.537 628.483 549.107 630.802 549.941C631.962 550.379 633.17 550.818 634.426 551.168C635.827 551.607 637.18 551.607 638.629 551.344C640.562 550.993 642.446 550.686 644.331 550.467C647.616 550.204 650.418 550.905 652.834 552.353C654.38 553.273 655.588 554.458 656.603 555.729C657.279 556.606 657.038 557.264 655.781 557.746L655.83 557.834Z" fill="#231815"/>
<path d="M656.704 555.817C655.689 554.545 654.482 553.361 652.935 552.44C650.52 550.949 647.717 550.291 644.432 550.554C642.548 550.73 640.663 551.037 638.731 551.432C637.329 551.695 635.928 551.695 634.527 551.256C633.271 550.905 632.111 550.467 630.903 550.028C628.633 549.151 626.12 548.625 623.415 548.757C620.805 548.888 618.341 549.502 616.022 550.423C611.819 552.221 608.727 554.677 606.939 558.009C605.006 561.693 604.571 565.465 605.103 569.148C605.779 573.577 607.809 577.568 610.949 581.076C612.109 582.348 613.365 583.532 615.201 584.277C616.119 584.716 617.278 584.935 618.39 585.242H620.661C622.545 584.76 624.333 584.277 626.169 583.839C628.923 583.181 631.483 583.225 633.851 584.014C635.107 584.453 636.411 584.672 637.716 585.067H639.504C640.373 584.804 641.291 584.628 642.064 584.321C644.335 583.532 646.075 582.216 647.717 580.857C650.326 578.664 652.646 576.296 654.53 573.797C655.11 573.007 655.013 572.525 654.095 572.13C653.95 572.086 653.757 571.999 653.66 571.867C649.94 570.288 648.732 566.824 650.037 563.316C650.955 560.772 653.032 559.018 655.931 557.922C657.236 557.439 657.429 556.738 656.752 555.905L656.704 555.817ZM638.103 545.906C639.359 545.95 640.567 545.906 641.726 545.599C644.818 544.854 647.186 543.319 648.78 541.17C649.795 539.942 650.326 538.583 650.375 537.179C650.375 536.565 650.037 536.215 649.36 536.083H648.152C645.881 536.215 643.756 536.828 641.92 537.925C639.31 539.328 637.571 541.302 636.895 543.845C636.895 544.152 636.798 544.459 636.798 544.766C636.798 545.511 637.233 545.862 638.054 545.95L638.103 545.906ZM656.704 555.817C655.689 554.545 654.482 553.361 652.935 552.44C650.52 550.949 647.717 550.291 644.432 550.554C642.548 550.73 640.663 551.037 638.731 551.432C637.329 551.695 635.928 551.695 634.527 551.256C633.271 550.905 632.111 550.467 630.903 550.028C628.633 549.151 626.12 548.625 623.415 548.757C620.805 548.888 618.341 549.502 616.022 550.423C611.819 552.221 608.727 554.677 606.939 558.009C605.006 561.693 604.571 565.465 605.103 569.148C605.779 573.577 607.809 577.568 610.949 581.076C612.109 582.348 613.365 583.532 615.201 584.277C616.119 584.716 617.278 584.935 618.39 585.242H620.661C622.545 584.76 624.333 584.277 626.169 583.839C628.923 583.181 631.483 583.225 633.851 584.014C635.107 584.453 636.411 584.672 637.716 585.067H639.504C640.373 584.804 641.291 584.628 642.064 584.321C644.335 583.532 646.075 582.216 647.717 580.857C650.326 578.664 652.646 576.296 654.53 573.797C655.11 573.007 655.013 572.525 654.095 572.13C653.95 572.086 653.757 571.999 653.66 571.867C649.94 570.288 648.732 566.824 650.037 563.316C650.955 560.772 653.032 559.018 655.931 557.922C657.236 557.439 657.429 556.738 656.752 555.905L656.704 555.817ZM649.36 536.083H648.152C645.881 536.215 643.756 536.828 641.92 537.925C639.31 539.328 637.571 541.302 636.895 543.845C636.895 544.152 636.798 544.459 636.798 544.766C636.798 545.511 637.233 545.862 638.054 545.95C639.31 545.994 640.518 545.95 641.678 545.643C644.77 544.897 647.138 543.363 648.732 541.214C649.747 539.986 650.278 538.627 650.326 537.223C650.326 536.609 649.988 536.258 649.312 536.127L649.36 536.083Z" fill="#231815"/>
<path d="M661.048 557.835C658.149 558.931 656.12 560.729 655.298 563.228C654.139 566.737 655.588 570.201 659.453 571.78C659.598 571.911 659.792 571.955 659.937 572.043C660.903 572.394 661 572.92 660.468 573.709C658.632 576.253 656.41 578.577 653.849 580.77C652.206 582.129 650.515 583.401 648.244 584.234C647.519 584.541 646.553 584.716 645.683 584.892H643.847C642.495 584.585 641.142 584.322 639.837 583.927C637.373 583.138 634.764 583.05 631.962 583.752C630.126 584.19 628.29 584.673 626.405 585.111H624.086C622.927 584.848 621.719 584.629 620.753 584.19C618.868 583.445 617.515 582.304 616.259 580.989C612.925 577.481 610.703 573.49 609.833 569.061C609.157 565.377 609.447 561.606 611.234 557.922C612.925 554.589 615.969 552.134 620.173 550.336C622.492 549.415 625.004 548.801 627.613 548.669C630.319 548.538 632.88 549.108 635.296 549.941C636.503 550.38 637.76 550.818 639.016 551.169C640.417 551.607 641.867 551.607 643.268 551.344C645.249 550.993 647.133 550.686 649.017 550.467C652.351 550.204 655.25 550.906 657.762 552.353C659.405 553.274 660.661 554.458 661.773 555.73C662.497 556.607 662.304 557.264 661.048 557.747V557.835Z" fill="white"/>
<path d="M654.477 537.179C654.477 538.583 653.994 539.942 653.076 541.17C651.53 543.319 649.211 544.853 646.07 545.599C644.911 545.906 643.703 545.95 642.398 545.906C641.529 545.862 641.045 545.467 641.045 544.722C641.045 544.415 641.094 544.108 641.094 543.801C641.625 541.258 643.316 539.328 645.925 537.881C647.761 536.785 649.839 536.171 652.158 536.039H653.366C654.042 536.171 654.429 536.521 654.429 537.135L654.477 537.179Z" fill="white"/>
<path d="M255.727 541.609C256.355 531.917 261.331 517.577 277.275 503.413C304.236 479.469 326.751 491.046 337.96 499.51C345.787 505.43 361.296 526.304 364.824 555.028C366.66 574.148 360.91 589.672 349.459 592.434C342.695 594.101 335.158 590.943 328.297 584.453M328.297 584.453C327.959 584.19 327.669 583.883 327.331 583.576M328.297 584.453C326.654 585.637 324.915 586.426 322.934 586.909M328.297 584.453L327.331 583.576M327.331 583.576L322.934 586.909M322.934 586.909C316.073 588.575 308.584 585.681 301.772 579.585C299.742 582.041 297.181 583.708 294.186 584.453C289.499 585.593 284.378 584.19 279.498 580.857" stroke="#231815" stroke-width="2" stroke-linecap="round" stroke-linejoin="round"/>
<path d="M510.071 370.363C508.138 370.363 506.254 370.056 504.466 369.442C488.57 364.048 485.188 336.552 496.736 306.907L501.519 308.442C491.276 334.798 493.402 360.759 506.254 365.144C508.138 365.802 510.071 365.933 512.197 365.583C512.825 365.495 513.211 365.495 513.501 365.407C526.498 362.601 541.621 345.498 550.414 323.747C552.83 317.695 554.666 311.556 555.874 305.46C556.599 301.733 557.082 298.224 557.275 294.979C557.42 294.979 557.13 294.979 557.275 294.979V290.287C558.29 290.419 559.546 290.682 560.512 290.857L562.542 291.296V293.181C562.348 297.172 561.817 301.557 560.851 306.206C559.643 312.652 557.71 319.055 555.198 325.369C545.728 348.875 529.494 366.723 514.806 369.88C514.419 369.968 513.791 370.099 513.26 370.143C512.148 370.319 511.085 370.406 510.071 370.406V370.363Z" fill="#231815"/>
<path d="M565.049 295.24C564.759 299.099 564.228 303.309 563.213 307.563C562.054 313.045 560.218 318.746 557.947 324.534C547.027 351.372 527.459 369.834 512.82 367.861H512.771C512.24 367.861 511.708 367.729 511.129 367.598C510.742 367.554 510.307 367.422 509.921 367.291C495.088 362.292 492.479 335.059 504.171 306.467C504.219 306.423 504.219 306.291 504.316 306.204C506.49 305.59 508.81 305.02 511.225 304.493C522.193 302.169 535.576 300.81 549.057 303.397C550.023 303.529 550.893 303.704 551.859 303.967C552.245 304.011 552.729 304.099 553.163 304.23C554.903 304.713 556.739 305.195 558.526 305.809C559.396 301.38 559.928 297.126 560.073 293.135C559.203 292.96 558.333 292.785 557.415 292.653C557.947 277.962 553.405 266.736 544.418 263.754C544.032 263.622 543.597 263.491 543.21 263.447C546.399 262.702 549.443 262.833 552.245 263.754C561.812 266.999 566.257 279.322 565.194 295.328L565.049 295.24Z" fill="#231815"/>
<path d="M445.661 409.787C443.777 409.787 441.941 409.085 440.588 407.726C438.124 405.182 438.317 401.367 441.071 399.087C449.574 392.114 470.64 382.993 489.677 398.341C492.479 400.578 492.72 404.481 490.256 407.024C487.744 409.568 483.492 409.787 480.69 407.55C466.292 395.973 451.749 406.936 450.154 408.252C448.85 409.304 447.255 409.787 445.661 409.787Z" fill="#231815"/>
<path d="M549.206 318.529C548.917 318.529 548.622 318.529 548.332 318.441C546.496 318.002 545.433 316.336 545.916 314.67C547.076 310.767 547.897 306.995 548.429 303.487C549.105 299.54 549.395 295.769 549.395 292.261C549.395 290.55 550.893 289.016 552.777 289.016C554.661 289.016 556.164 290.2 556.164 291.91C556.164 296.12 555.826 300.154 555.101 304.364C554.57 308.048 553.647 312.082 552.439 316.248C552.052 317.652 550.651 318.529 549.153 318.529H549.206Z" fill="white"/>
<g opacity="0.8">
<path d="M396.572 375.231C404.641 374.968 414.207 372.467 419.667 377.862C421.745 379.923 422.663 382.773 422.953 385.536C423.677 393.693 418.652 402.069 410.68 405.928C404.979 408.69 398.263 409.217 391.789 409.568C385.508 409.918 379.033 410.138 373.139 408.033C364.974 405.138 359.272 398.122 356.228 390.667C353.088 383.08 352.46 367.95 363.862 365.362C373.864 363.082 384.396 375.669 396.524 375.231H396.572Z" fill="#AAAAAA"/>
</g>
<g opacity="0.8">
<path d="M533.741 373.299C540.698 369.615 547.897 363.345 555.483 365.756C558.382 366.677 560.701 368.782 562.344 371.15C567.224 378.081 567.079 387.597 562.054 394.394C558.43 399.262 552.825 402.595 547.269 405.664C541.906 408.646 536.253 411.585 530.02 412.242C521.324 413.163 512.675 409.392 506.104 404.086C499.437 398.692 491.078 385.624 499.775 378.476C507.409 372.159 523.256 378.826 533.741 373.255V373.299Z" fill="#AAAAAA"/>
</g>
<path d="M485.179 316.075C483.971 316.075 482.811 315.505 482.183 314.452C481.313 312.961 481.941 311.075 483.584 310.286C483.826 310.155 489.334 307.479 498.031 304.761C499.238 304.322 500.688 303.884 502.234 303.489C502.379 303.445 502.572 303.357 502.814 303.313L503.297 303.182C505.471 302.612 507.839 302.042 510.303 301.472C524.556 298.446 537.746 298.051 549.632 300.331C550.501 300.419 551.516 300.638 552.627 300.945C552.917 300.945 553.545 301.077 554.077 301.252C556.203 301.822 557.894 302.305 559.537 302.875L561.711 303.664C562.58 303.971 563.547 304.366 564.513 304.761C567.75 306.12 571.132 307.83 574.804 310.067C576.35 311.032 576.785 312.917 575.722 314.321C574.659 315.724 572.582 316.119 571.036 315.154C567.654 313.137 564.61 311.558 561.759 310.33C560.793 309.935 559.73 309.541 558.715 309.19C558.28 309.014 557.894 308.883 557.507 308.795L554.947 307.918C554.125 307.699 553.352 307.436 552.579 307.26L551.178 306.953C550.018 306.69 549.294 306.515 548.472 306.427C537.311 304.322 525.087 304.673 511.897 307.479C510.448 307.83 508.998 308.137 507.597 308.488V308.707L504.07 309.453C502.766 309.804 501.509 310.198 500.398 310.593C492.136 313.224 486.87 315.768 486.773 315.768C486.241 316.031 485.71 316.119 485.179 316.119V316.075Z" fill="#231815"/>
<path d="M389.905 370.364C387.972 370.364 386.088 370.057 384.3 369.444C368.259 364.006 364.974 336.247 376.859 306.295L377.246 305.331L378.309 304.936C379.034 304.673 379.807 304.453 380.628 304.278C381.643 304.015 382.657 303.752 383.672 303.533C384.831 303.182 386.281 302.875 387.827 302.568L389.228 302.261C403.771 299.323 417.3 298.884 429.475 300.989C429.862 297.876 430.055 295.025 430.055 292.306H435.128C435.128 295.946 434.79 299.761 434.162 304.059L433.775 306.778L430.876 305.944C430.442 305.813 429.958 305.725 429.427 305.681C417.541 303.533 404.496 303.883 390.339 306.734L388.938 307.041C387.537 307.348 386.184 307.611 384.928 308.006C383.817 308.225 382.947 308.444 382.126 308.663C381.788 308.751 381.449 308.839 381.208 308.883C371.11 335.151 373.236 360.761 386.088 365.102C387.972 365.76 390.001 365.891 392.127 365.541C392.707 365.453 393.045 365.453 393.383 365.365C406.38 362.559 421.503 345.456 430.297 323.705C432.906 317.302 434.742 311.031 435.805 305.024C436.529 301.603 436.964 298.226 437.157 294.937C437.302 294.937 437.013 294.937 437.157 294.937V290.245C438.124 290.377 439.428 290.64 440.346 290.815L442.376 291.254V293.139C442.182 297.262 441.651 301.515 440.781 305.813C439.67 312.084 437.737 318.662 435.032 325.327C425.562 348.789 409.328 366.681 394.688 369.838C394.253 369.97 393.673 370.057 393.094 370.101C392.031 370.277 390.968 370.364 389.905 370.364Z" fill="#231815"/>
<path d="M444.835 295.24C444.641 299.012 444.013 302.915 443.144 306.993C441.936 312.65 440.1 318.57 437.732 324.534C426.813 351.372 407.245 369.834 392.605 367.861C391.977 367.861 391.446 367.729 390.914 367.598C390.528 367.554 390.093 367.422 389.706 367.291C374.873 362.292 372.264 335.059 383.957 306.467C384.005 306.204 384.15 305.984 384.247 305.809C385.986 305.327 387.919 304.932 389.851 304.537C401.447 302.213 415.555 300.854 429.712 303.441C430.388 303.485 431.065 303.616 431.693 303.792C432.514 303.923 433.239 304.055 434.012 304.23C435.413 304.581 436.911 304.976 438.36 305.458C439.23 301.161 439.713 297.038 439.858 293.135C438.989 292.96 438.071 292.785 437.201 292.653C437.732 277.962 433.191 266.736 424.204 263.754C423.817 263.622 423.383 263.491 422.996 263.447C426.185 262.702 429.229 262.833 432.031 263.754C441.598 266.999 446.043 279.322 444.98 295.328L444.835 295.24Z" fill="#231815"/>
<path d="M428.992 318.528C428.702 318.528 428.412 318.528 428.122 318.44C426.286 318.002 425.224 316.335 425.707 314.713C426.818 310.897 427.688 307.038 428.267 303.311C428.896 299.276 429.185 295.68 429.185 292.304C429.185 290.593 430.683 289.059 432.568 289.059C434.452 289.059 435.95 290.243 435.95 291.953C435.95 295.987 435.611 299.846 434.983 304.188C434.355 308.178 433.437 312.257 432.278 316.291C431.891 317.695 430.49 318.572 428.992 318.572V318.528Z" fill="white"/>
<path d="M362.51 316.072C361.302 316.072 360.094 315.458 359.514 314.405C358.644 312.914 359.273 311.029 360.964 310.239C361.254 310.108 367.873 306.994 378.261 304.056C378.744 303.881 379.565 303.661 380.387 303.442C381.401 303.179 382.464 302.916 383.479 302.696C384.59 302.39 386.088 302.039 387.586 301.732L388.987 301.425C403.965 298.399 417.88 298.004 430.297 300.285C430.877 300.285 431.795 300.504 432.616 300.723C433.051 300.723 433.92 300.899 434.79 301.118C436.578 301.556 438.027 301.951 439.428 302.433C440.25 302.609 441.409 302.96 442.472 303.398C442.762 303.442 443.342 303.661 443.97 303.881C448.657 305.635 452.86 307.608 456.774 309.932C458.32 310.853 458.803 312.783 457.789 314.186C456.774 315.633 454.648 316.028 453.102 315.107C449.527 313.002 445.758 311.204 441.893 309.757C441.023 309.45 440.636 309.274 440.202 309.187C439.042 308.748 438.172 308.485 437.351 308.266C435.853 307.74 434.597 307.433 433.341 307.126C432.423 306.906 431.746 306.775 431.07 306.687C430.2 306.468 429.765 306.38 429.331 306.336C417.493 304.187 404.544 304.538 390.533 307.389L389.132 307.696C387.779 308.003 386.426 308.266 385.17 308.617C384.01 308.836 383.189 309.055 382.368 309.274C381.546 309.494 380.966 309.625 380.483 309.801C370.434 312.651 364.104 315.589 364.056 315.633C363.573 315.852 363.041 315.984 362.51 315.984V316.072Z" fill="#231815"/>
<path d="M391.74 415.97C391.161 415.838 386.184 415.137 381.208 414.435C373.38 413.295 369.259 412.448 368.839 411.892C368.452 411.365 368.307 410.708 368.452 410.094C368.887 408.208 368.935 408.12 382.995 406.849C369.515 404.831 369.467 404.787 368.839 403.954C368.452 403.428 368.307 402.814 368.452 402.2C368.776 400.827 375.989 399.543 390.098 398.341C390.098 398.341 390.098 398.341 390.146 398.341C389.953 398.341 389.808 398.341 389.663 398.253C375.975 396.473 368.872 395.258 368.356 394.614C367.969 394.087 367.776 393.429 367.921 392.816C368.452 390.535 368.452 390.448 390.243 391.5C368.452 386.852 368.5 386.764 369.032 384.44C369.418 382.598 369.515 382.291 383.623 382.729C369.998 380.317 370.047 380.01 370.385 378.125C370.626 376.853 371.931 376.064 373.332 376.239C373.429 376.239 373.574 376.239 373.67 376.327C374.878 376.59 385.266 378.344 394.398 379.923C409.182 382.44 416.787 384.001 417.203 384.615C417.589 385.141 417.686 385.755 417.589 386.325C417.106 388.518 417.106 388.606 394.978 387.816C418.073 392.772 418.072 392.816 417.541 395.14C417.203 396.587 417.058 397.245 411.453 397.113C411.55 397.201 411.598 397.245 411.646 397.332C412.033 397.859 412.226 398.516 412.081 399.13C411.762 400.507 404.578 401.779 390.532 402.946C390.049 402.946 389.518 403.033 388.986 403.077C402.177 405.051 402.225 405.094 402.853 405.928C403.24 406.454 403.384 407.068 403.24 407.682C402.805 409.567 402.805 409.655 389.083 410.927C393.77 411.628 393.866 411.804 394.349 412.418L392.272 413.733L391.692 415.97H391.74Z" fill="#231815"/>
<path d="M523.401 420.005C522.628 420.005 522.435 419.873 522.096 419.61C521.565 419.215 521.227 418.689 521.13 418.075C520.889 416.146 520.84 416.058 533.789 410.796C520.309 412.769 520.26 412.725 519.342 412.111C518.763 411.717 518.424 411.147 518.328 410.533C518.168 409.129 524.546 405.867 537.461 400.753C537.461 400.753 537.557 400.753 537.606 400.71C537.364 400.71 537.171 400.797 536.929 400.797C523.401 403.016 516.299 403.893 515.622 403.428C515.042 403.034 514.704 402.464 514.607 401.85C514.318 399.526 514.269 399.438 535.335 394.219C513.11 396.017 513.061 395.973 512.771 393.649C512.53 391.72 512.482 391.413 525.962 387.817C513.689 389.308 513.544 389.22 512.771 388.694L514.318 386.896L514.173 384.616C515.091 384.528 525.962 383.212 535.576 382.028C558.961 379.178 558.913 379.178 559.348 381.414C559.638 383.738 559.638 383.782 538.427 389.352C554.212 388.062 562.198 388.225 562.392 389.834C562.585 391.281 562.633 391.851 557.319 393.43C557.415 393.474 557.512 393.561 557.608 393.605C558.14 394 558.526 394.57 558.623 395.184C558.816 396.587 552.424 399.859 539.442 405.007C539.007 405.183 538.572 405.358 538.089 405.533C551.279 403.648 551.327 403.648 552.245 404.262C552.825 404.656 553.163 405.226 553.26 405.84C553.502 407.726 553.502 407.858 540.94 412.945C545.626 412.287 545.819 412.418 546.496 412.857L543.355 416.453L544.95 414.655L545.191 416.935C544.563 417.023 539.393 417.768 534.32 418.514C527.266 419.566 524.609 419.961 523.353 419.961L523.401 420.005Z" fill="#231815"/>
</g>
</svg>
