<?xml version="1.0" encoding="UTF-8"?><svg id="_레이어_1" xmlns="http://www.w3.org/2000/svg" viewBox="0 0 380 340"><defs><style>.cls-1{fill:#fff;}.cls-2{fill:none;}.cls-3{fill:#231815;}</style></defs><rect class="cls-2" x="0" y="0" width="380" height="340" rx="20" ry="20"/><path class="cls-3" d="m178.73,184.1c-3.17-1.07-8.48-3.03-11.35-4.19-1.96-.79-7.99-3.58-7.99-3.58-4.92-1.99-5.85-4.19-2.08-4.92l26.41-5.11c2.5-.48,4.65,1.78,4.05,4.25l-2.1,8.65c-.87,4.07,1.21,4.19,1.21,5.78,0,1.21-6.21-.21-8.16-.87Z"/><path class="cls-3" d="m236.57,177.1l-38.07,8.02h-6.86c-1.64,0-3.02-.59-3.87-1.68-.81-1.04-1.07-2.44-.72-3.93l3.54-14.55,14.44-2.79c3.79-.73,10.21.31,14.37,2.31l15.87,7.66c4.15,2.01,4.74,4.22,1.32,4.95Z"/><path class="cls-3" d="m284.76,137.9l-11.93,41.27c-.93,3.28-4.38,5.95-7.7,5.95h-67.1l36.84-8.02c3.34-.73,2.86-2.95-1.09-4.95l-15.19-7.66c-4.01-2.01-10.27-3.04-13.98-2.31l-14.11,2.79,6.51-26.59c.82-3.28,4.28-5.95,7.71-5.96l75.84-.15h.01c1.6,0,2.9.59,3.69,1.67.76,1.05.94,2.46.5,3.97Z"/><path class="cls-3" d="m234.86,177.1l-36.84,8.02h-6.58c-1.57,0-2.89-.59-3.71-1.68-.78-1.04-1.02-2.44-.69-3.93l3.45-14.55,14.11-2.79c3.71-.73,9.97.31,13.98,2.31l15.19,7.66c3.94,2.01,4.43,4.22,1.09,4.95Z"/><path class="cls-1" d="m244.01,156.99c-.6.25-1.02.66-1.19,1.23-.25.8.06,1.59.85,1.96.03.02.07.03.1.05.19.08.22.2.11.38-.38.58-.84,1.11-1.36,1.61-.34.31-.7.61-1.17.8-.16.07-.35.11-.53.16h-.39c-.27-.07-.56-.14-.83-.23-.5-.18-1.04-.2-1.63-.04-.38.1-.76.21-1.14.31h-.48c-.23-.07-.48-.12-.69-.21-.39-.17-.67-.44-.92-.73-.68-.81-1.15-1.71-1.33-2.73-.14-.84-.09-1.69.3-2.53.35-.76.99-1.32,1.85-1.73.48-.22.99-.36,1.54-.39.57-.02,1.09.11,1.59.3.25.1.51.2.77.29.29.09.58.09.89.03.4-.07.79-.16,1.19-.19.68-.07,1.28.1,1.81.44.34.21.61.47.83.76.15.21.11.35-.16.47Z"/><path class="cls-1" d="m242.66,152.27c0,.33-.11.64-.3.92-.33.49-.8.84-1.44,1.01-.25.06-.5.08-.76.06-.18,0-.27-.1-.27-.26,0-.07,0-.15,0-.22.12-.57.47-1.01.99-1.35.39-.25.82-.39,1.3-.42.08,0,.16,0,.25,0,.15.02.23.12.23.25Z"/></svg>