<?xml version="1.0" encoding="UTF-8"?><svg id="_레이어_1" xmlns="http://www.w3.org/2000/svg" viewBox="0 0 380 340"><defs><style>.cls-1{fill:#535354;}.cls-1,.cls-2,.cls-3,.cls-4,.cls-5{stroke:#231815;}.cls-1,.cls-2,.cls-4,.cls-5{stroke-linejoin:round;}.cls-1,.cls-2,.cls-5{stroke-width:2px;}.cls-2{fill:#9f9fa0;}.cls-3{stroke-miterlimit:10;}.cls-3,.cls-5{fill:#231815;}.cls-4{stroke-linecap:round;stroke-width:3px;}.cls-4,.cls-6{fill:none;}</style></defs><rect class="cls-6" x="0" width="380" height="340" rx="20" ry="20"/><path class="cls-5" d="m157.22,109.71c-.95.99-2.02,1.83-3.15,2.5-1.56.92-3.25,1.51-5.07,1.73-9.54,1.14-18.7-8.55-20.47-21.64-1.76-13.07,4.55-24.61,14.09-25.73.16-.02.31-.03.47-.04,1.91-.17,3.8.1,5.6.75,7.09,2.51,13.01,10.67,14.38,20.92,1.18,8.75-1.24,16.8-5.85,21.51Z"/><path class="cls-2" d="m161.11,109.19c-.73-.09-1.41.35-2.16.43-.67.08-1.36.11-2.02.09,4.6-4.71,7.03-12.75,5.85-21.51-1.37-10.25-7.3-18.41-14.38-20.92,1.45-.75,3.01-1.24,4.67-1.44.5-.06,2.08-.07,2.58-.06,8.97-.09,16.1,8.44,17.62,19.91,1.51,11.15-3.9,24.54-12.17,23.51Z"/><path class="cls-3" d="m262.28,108.2c-1.85,1.46-3.44,2.48-5.08,2.37.11-6.92.04-13.66-.27-20.01-.36-7.53-1.91-13.99-4.17-19.5,3.69-.69,7.81,1.28,10.66,4.12,3.83,3.83,5.29,9.41,5.74,14.56.58,6.75-1.26,14-6.89,18.45Z"/><path class="cls-3" d="m238.86,45.38c-.89.89-2.2,1.29-3.46,1.02-6.26-1.3-26.16-4.81-45.01-1.51-10.4,1.82-23.61,7.18-28.07,9.06-.91.38-1.96.1-2.53-.67l-2.92-3.97c-.65-.88-.76-2.02-.28-3,1.91-3.91,8.17-13.56,23.72-17.4,12.74-3.15,22.87-3.91,31.91-3.03,18.19,1.77,26.36,10.09,28.6,14.03.76,1.34.52,2.99-.59,4.1l-1.37,1.37Z"/><path class="cls-4" d="m162.82,47.33s-7.51,3.95-13.65,20.04"/><path class="cls-4" d="m238.17,44.23s16.24,8.9,16.51,26.23"/><path class="cls-1" d="m161.4,109.19c-2,1.63-4.33,2.67-6.87,2.97-.15.02-.31.03-.46.04,1.13-.67,2.2-1.51,3.15-2.5,4.6-4.71,7.03-12.75,5.85-21.51-1.37-10.25-7.3-18.41-14.38-20.92-1.8-.65-3.69-.92-5.6-.75,1.54-.92,3.25-1.51,5.07-1.73,2.3-.27,4.57.08,6.71.95,6.8,2.77,12.39,10.75,13.75,20.69,1.28,9.57-1.75,18.32-7.21,22.76Z"/></svg>