<?xml version="1.0" encoding="UTF-8"?><svg id="_레이어_1" xmlns="http://www.w3.org/2000/svg" viewBox="0 0 380 340"><defs><style>.cls-1,.cls-2{fill:#fff;}.cls-3{stroke-width:2px;}.cls-3,.cls-4,.cls-5,.cls-6,.cls-7{fill:none;}.cls-3,.cls-5,.cls-6,.cls-2{stroke-linecap:round;stroke-miterlimit:10;}.cls-3,.cls-6,.cls-2{stroke:#231815;}.cls-4{opacity:.8;}.cls-5{stroke:#fff;}.cls-8{fill:#aaa;}.cls-9{fill:#231815;}</style></defs><rect class="cls-7" x="0" y="0" width="380" height="340" rx="20" ry="20"/><ellipse class="cls-9" cx="194.21" cy="87.47" rx="12.59" ry="5.94" transform="translate(44.77 239.25) rotate(-69.69)"/><ellipse class="cls-9" cx="215.64" cy="88.5" rx="12.59" ry="5.94" transform="translate(57.8 260.02) rotate(-69.69)"/><path class="cls-3" d="m197.97,108.6s4.15-3.75,8.19-.16"/><path class="cls-5" d="m198.35,79.06c.59,2.15.48,5.16-.39,8.41"/><path class="cls-5" d="m219.79,80.09c.59,2.15.48,5.16-.39,8.41"/><path class="cls-1" d="m211.37,57.64s-35.06.45-50.5,31.11c-15.44,30.66,26.06,27.76,50.5,28.73s38.28-5.92,34.1-23.39c-4.18-17.47-9.97-35.8-34.1-36.45Z"/><path class="cls-9" d="m211.11,102.89c-.4,0-.79-.07-1.16-.21-3.29-1.23-3.99-7.5-1.6-14.26l.99.35c-2.12,6.01-1.68,11.93.98,12.93.39.15.79.18,1.23.1.13-.02.21-.02.27-.04,2.69-.64,5.82-4.54,7.64-9.5.5-1.38.88-2.78,1.13-4.17.15-.85.25-1.65.29-2.39-.03,0,.03,0,0,0v-1.07c.21.03.47.09.67.13l.42.1v.43c-.04.91-.15,1.91-.35,2.97-.25,1.47-.65,2.93-1.17,4.37-1.96,5.36-5.32,9.43-8.36,10.15-.08.02-.21.05-.32.06-.23.04-.45.06-.66.06Z"/><path class="cls-9" d="m222.48,85.76c-.06.88-.17,1.84-.38,2.81-.24,1.25-.62,2.55-1.09,3.87-2.26,6.12-6.31,10.33-9.34,9.88h-.01c-.11,0-.22-.03-.34-.06-.08-.01-.17-.04-.25-.07-3.07-1.14-3.61-7.35-1.19-13.87.01-.01.01-.04.03-.06h0c.45-.14.93-.27,1.43-.39,2.27-.53,5.04-.84,7.83-.25.2.03.38.07.58.13.08.01.18.03.27.06.36.11.74.22,1.11.36.18-1.01.29-1.98.32-2.89-.18-.04-.36-.08-.55-.11.11-3.35-.83-5.91-2.69-6.59-.08-.03-.17-.06-.25-.07.66-.17,1.29-.14,1.87.07,1.98.74,2.9,3.55,2.68,7.2Z"/><path class="cls-9" d="m197.77,111.88c-.39,0-.77-.16-1.05-.47-.51-.58-.47-1.45.1-1.97,1.76-1.59,6.12-3.67,10.06-.17.58.51.63,1.4.12,1.98-.52.58-1.4.63-1.98.12-2.98-2.64-5.99-.14-6.32.16-.27.24-.6.35-.93.35Z"/><path class="cls-1" d="m219.2,91.08c-.06,0-.12,0-.18-.02-.38-.1-.6-.48-.5-.86.24-.89.41-1.75.52-2.55.14-.9.2-1.76.2-2.56,0-.39.31-.74.7-.74s.7.27.7.66c0,.96-.07,1.88-.22,2.84-.11.84-.3,1.76-.55,2.71-.08.32-.37.52-.68.52Z"/><g class="cls-4"><path class="cls-8" d="m187.62,104.01c1.67-.06,3.65-.63,4.78.6.43.47.62,1.12.68,1.75.15,1.86-.89,3.77-2.54,4.65-1.18.63-2.57.75-3.91.83-1.3.08-2.64.13-3.86-.35-1.69-.66-2.87-2.26-3.5-3.96-.65-1.73-.78-5.18,1.58-5.77,2.07-.52,4.25,2.35,6.76,2.25Z"/></g><g class="cls-4"><path class="cls-8" d="m216.01,103.57c1.44-.84,2.93-2.27,4.5-1.72.6.21,1.08.69,1.42,1.23,1.01,1.58.98,3.75-.06,5.3-.75,1.11-1.91,1.87-3.06,2.57-1.11.68-2.28,1.35-3.57,1.5-1.8.21-3.59-.65-4.95-1.86-1.38-1.23-3.11-4.21-1.31-5.84,1.58-1.44,4.86.08,7.03-1.19Z"/></g><path class="cls-9" d="m205.96,90.52c-.25,0-.49-.13-.62-.37-.18-.34-.05-.77.29-.95.05-.03,1.19-.64,2.99-1.26.25-.1.55-.2.87-.29.03-.01.07-.03.12-.04l.1-.03c.45-.13.94-.26,1.45-.39,2.95-.69,5.68-.78,8.14-.26.18.02.39.07.62.14.06,0,.19.03.3.07.44.13.79.24,1.13.37l.45.18c.18.07.38.16.58.25.67.31,1.37.7,2.13,1.21.32.22.41.65.19.97-.22.32-.65.41-.97.19-.7-.46-1.33-.82-1.92-1.1-.2-.09-.42-.18-.63-.26-.09-.04-.17-.07-.25-.09l-.53-.2c-.17-.05-.33-.11-.49-.15l-.29-.07c-.24-.06-.39-.1-.56-.12-2.31-.48-4.84-.4-7.57.24-.3.08-.6.15-.89.23v.05l-.73.17c-.27.08-.53.17-.76.26-1.71.6-2.8,1.18-2.82,1.18-.11.06-.22.08-.33.08Z"/><path class="cls-9" d="m186.24,102.9c-.4,0-.79-.07-1.16-.21-3.32-1.24-4-7.57-1.54-14.4l.08-.22.22-.09c.15-.06.31-.11.48-.15.21-.06.42-.12.63-.17.24-.08.54-.15.86-.22l.29-.07c3.01-.67,5.81-.77,8.33-.29.08-.71.12-1.36.12-1.98h1.05c0,.83-.07,1.7-.2,2.68l-.08.62-.6-.19c-.09-.03-.19-.05-.3-.06-2.46-.49-5.16-.41-8.09.24l-.29.07c-.29.07-.57.13-.83.22-.23.05-.41.1-.58.15-.07.02-.14.04-.19.05-2.09,5.99-1.65,11.83,1.01,12.82.39.15.81.18,1.25.1.12-.02.19-.02.26-.04,2.69-.64,5.82-4.54,7.64-9.5.54-1.46.92-2.89,1.14-4.26.15-.78.24-1.55.28-2.3-.03,0,.03,0,0,0v-1.07c.2.03.47.09.66.13l.42.1v.43c-.04.94-.15,1.91-.33,2.89-.23,1.43-.63,2.93-1.19,4.45-1.96,5.35-5.32,9.43-8.35,10.15-.09.03-.21.05-.33.06-.22.04-.44.06-.66.06Z"/><path class="cls-9" d="m197.61,85.76c-.04.86-.17,1.75-.35,2.68-.25,1.29-.63,2.64-1.12,4-2.26,6.12-6.31,10.33-9.34,9.88-.13,0-.24-.03-.35-.06-.08-.01-.17-.04-.25-.07-3.07-1.14-3.61-7.35-1.19-13.87.01-.06.04-.11.06-.15.36-.11.76-.2,1.16-.29,2.4-.53,5.32-.84,8.25-.25.14.01.28.04.41.08.17.03.32.06.48.1.29.08.6.17.9.28.18-.98.28-1.92.31-2.81-.18-.04-.37-.08-.55-.11.11-3.35-.83-5.91-2.69-6.59-.08-.03-.17-.06-.25-.07.66-.17,1.29-.14,1.87.07,1.98.74,2.9,3.55,2.68,7.2Z"/><path class="cls-1" d="m194.33,91.08c-.06,0-.12,0-.18-.02-.38-.1-.6-.48-.5-.85.23-.87.41-1.75.53-2.6.13-.92.19-1.74.19-2.51,0-.39.31-.74.7-.74s.7.27.7.66c0,.92-.07,1.8-.2,2.79-.13.91-.32,1.84-.56,2.76-.08.32-.37.52-.68.52Z"/><path class="cls-9" d="m180.56,90.52c-.25,0-.5-.14-.62-.38-.18-.34-.05-.77.3-.95.06-.03,1.43-.74,3.58-1.41.1-.04.27-.09.44-.14.21-.06.43-.12.64-.17.23-.07.54-.15.85-.22l.29-.07c3.1-.69,5.98-.78,8.55-.26.12,0,.31.05.48.1.09,0,.27.04.45.09.37.1.67.19.96.3.17.04.41.12.63.22.06.01.18.06.31.11.97.4,1.84.85,2.65,1.38.32.21.42.65.21.97-.21.33-.65.42-.97.21-.74-.48-1.52-.89-2.32-1.22-.18-.07-.26-.11-.35-.13-.24-.1-.42-.16-.59-.21-.31-.12-.57-.19-.83-.26-.19-.05-.33-.08-.47-.1-.18-.05-.27-.07-.36-.08-2.45-.49-5.13-.41-8.03.24l-.29.07c-.28.07-.56.13-.82.21-.24.05-.41.1-.58.15-.17.05-.29.08-.39.12-2.08.65-3.39,1.32-3.4,1.33-.1.05-.21.08-.32.08Z"/><path class="cls-9" d="m186.61,113.29c-.12-.03-1.15-.19-2.18-.35q-2.43-.39-2.56-.58c-.08-.12-.11-.27-.08-.41.09-.43.1-.45,3.01-.74-2.79-.46-2.8-.47-2.93-.66-.08-.12-.11-.26-.08-.4q.1-.47,4.48-.88s0,0,.01,0c-.04,0-.07,0-.1-.02q-4.25-.61-4.41-.83c-.08-.12-.12-.27-.09-.41.11-.52.11-.54,4.62-.3-4.51-1.06-4.5-1.08-4.39-1.61.08-.42.1-.49,3.02-.39-2.82-.55-2.81-.62-2.74-1.05.05-.29.32-.47.61-.43.02,0,.05,0,.07.02.25.06,2.4.46,4.29.82q4.59.86,4.72,1.07c.08.12.1.26.08.39-.1.5-.1.52-4.68.34,4.78,1.13,4.78,1.14,4.67,1.67-.07.33-.1.48-1.26.45.02.02.03.03.04.05.08.12.12.27.09.41q-.1.47-4.46.87c-.1,0-.21.02-.32.03,2.73.45,2.74.46,2.87.65.08.12.11.26.08.4-.09.43-.09.45-2.93.74.97.16.99.2,1.09.34l-.43.3-.52-.1.52.1-.12.51Z"/><path class="cls-9" d="m213.87,114.22c-.16,0-.2-.03-.27-.09-.11-.09-.18-.21-.2-.35-.05-.44-.06-.46,2.62-1.66-2.79.45-2.8.44-2.99.3-.12-.09-.19-.22-.21-.36q-.05-.48,3.96-2.23s.02,0,.03-.01c-.05,0-.09.02-.14.02q-4.2.76-4.41.6c-.12-.09-.19-.22-.21-.36-.06-.53-.07-.55,4.29-1.74-4.6.41-4.61.4-4.67-.13-.05-.44-.06-.51,2.73-1.33-2.54.34-2.57.32-2.73.2l.32-.41.52-.05-.52.05-.03-.52c.19-.02,2.44-.32,4.43-.59,4.84-.65,4.83-.65,4.92-.14.06.53.06.54-4.33,1.81q4.9-.44,4.96.11c.04.33.05.46-1.05.82.02.01.04.03.06.04.11.09.19.22.21.36q.06.48-3.97,2.24c-.09.04-.18.08-.28.12,2.73-.43,2.74-.43,2.93-.29.12.09.19.22.21.36.05.43.05.46-2.55,1.62.97-.15,1.01-.12,1.15-.02l-.65.82.33-.41.05.52c-.13.02-1.2.19-2.25.36-1.46.24-2.01.33-2.27.33Z"/><path class="cls-6" d="m100.12,223.11s-1.69,6.49,3.99,7.63"/><path class="cls-6" d="m93,225.45s-1.12,5.37,2.66,6.32"/><path class="cls-2" d="m84.89,226.99s-.56,4.07,1.33,4.78"/></svg>