<svg width="380" height="340" viewBox="0 0 380 340" fill="none" xmlns="http://www.w3.org/2000/svg">
<g clip-path="url(#clip0_1584_5851)">
<path d="M190 266.89C208.96 266.89 224.33 263.824 224.33 260.04C224.33 256.257 208.96 253.19 190 253.19C171.04 253.19 155.67 256.257 155.67 260.04C155.67 263.824 171.04 266.89 190 266.89Z" fill="#D9D9D9"/>
<path d="M250.069 201.53C247.549 212.85 256.449 226.27 253.419 227.36C248.299 229.2 232.779 220.24 227.529 219.58C221.909 218.87 228.799 232.62 220.379 232.39C213.309 232.19 215.579 221.18 207.169 221.18C200.169 221.18 196.769 235.79 187.059 235.79C180.689 235.79 178.079 221.18 169.659 221.18C164.299 221.18 160.459 230.14 153.949 229.46C148.199 228.85 146.629 222.26 143.129 221.18C140.249 220.29 135.849 225.14 129.589 226.52C125.469 227.43 123.789 226.32 122.219 224.87C122.219 224.87 118.499 220.16 125.649 214.13C139.749 202.23 127.899 158.66 130.769 135.63C142.189 44.0397 204.949 33.6097 224.709 41.7597C222.719 40.9397 256.529 51.0997 258.419 90.2397C260.419 131.81 252.229 190.6 250.059 201.54L250.069 201.53Z" fill="white" stroke="#231815" stroke-width="2" stroke-miterlimit="10"/>
<path d="M199.783 89.537C202.196 83.016 201.659 76.8066 198.582 75.6679C195.506 74.5293 191.055 78.8925 188.641 85.4134C186.228 91.9344 186.766 98.1438 189.842 99.2825C192.919 100.421 197.369 96.0579 199.783 89.537Z" fill="#231815"/>
<path d="M221.216 90.5663C223.63 84.0453 223.092 77.8359 220.016 76.6973C216.939 75.5586 212.489 79.9218 210.075 86.4427C207.662 92.9637 208.199 99.1731 211.276 100.312C214.352 101.45 218.803 97.0873 221.216 90.5663Z" fill="#231815"/>
<path d="M197.971 108.6C197.971 108.6 202.121 104.85 206.161 108.44" stroke="#231815" stroke-width="2" stroke-miterlimit="10" stroke-linecap="round"/>
<path d="M156.029 134.41C156.159 132.2 157.189 128.93 160.489 125.7C166.069 120.24 170.729 122.88 173.049 124.81C174.669 126.16 177.879 130.92 178.609 137.47C178.989 141.83 177.799 145.37 175.429 146C174.029 146.38 172.469 145.66 171.049 144.18M171.049 144.18C170.979 144.12 170.919 144.05 170.849 143.98M171.049 144.18C170.709 144.45 170.349 144.63 169.939 144.74M171.049 144.18L170.849 143.98M170.849 143.98L169.939 144.74M169.939 144.74C168.519 145.12 166.969 144.46 165.559 143.07C165.139 143.63 164.609 144.01 163.989 144.18C163.019 144.44 161.959 144.12 160.949 143.36" stroke="#231815" stroke-width="2" stroke-linecap="round" stroke-linejoin="round"/>
<path d="M222.09 130.89C222.55 128.97 223.98 126.25 227.39 123.94C233.16 120.02 236.84 123.08 238.57 125.15C239.78 126.6 241.85 131.29 241.45 137.17C241.09 141.07 239.48 143.99 237.29 144.16C236 144.27 234.74 143.39 233.73 141.86M233.73 141.86C233.68 141.8 233.64 141.73 233.59 141.66M233.73 141.86C233.4 142.04 233.05 142.15 232.67 142.18M233.73 141.86L233.59 141.66M233.59 141.66L232.67 142.18M232.67 142.18C231.36 142.29 230.1 141.46 229.09 140.02C228.63 140.45 228.1 140.69 227.53 140.74C226.63 140.82 225.75 140.37 224.98 139.54" stroke="#231815" stroke-width="2" stroke-linecap="round" stroke-linejoin="round"/>
<path d="M198.351 79.0596C198.941 81.2096 198.831 84.2196 197.961 87.4696" stroke="white" stroke-miterlimit="10" stroke-linecap="round"/>
<path d="M219.79 80.0898C220.38 82.2398 220.27 85.2498 219.4 88.4998" stroke="white" stroke-miterlimit="10" stroke-linecap="round"/>
</g>
<defs>
<clipPath id="clip0_1584_5851">
<rect width="380" height="340" fill="white"/>
</clipPath>
</defs>
</svg>
