<svg width="20" height="21" viewBox="0 0 20 21" fill="none" xmlns="http://www.w3.org/2000/svg">
<path d="M19.7495 2.97297C19.9099 3.13388 20 3.35182 20 3.57902C20 3.80623 19.9099 4.02417 19.7495 4.18508L17.9586 5.97749L14.5244 2.54375L16.3153 0.751338C16.4763 0.590406 16.6946 0.5 16.9223 0.5C17.15 0.5 17.3683 0.590406 17.5293 0.751338L19.7495 2.97125V2.97297ZM16.7446 7.1896L13.3104 3.75586L1.61186 15.4546C1.51736 15.5491 1.44621 15.6643 1.40409 15.7911L0.0218342 19.9356C-0.00323399 20.0112 -0.00679329 20.0922 0.0115545 20.1697C0.0299022 20.2472 0.0694344 20.318 0.125731 20.3743C0.182029 20.4306 0.252873 20.4701 0.330346 20.4884C0.407819 20.5068 0.488868 20.5032 0.564435 20.4782L4.70949 19.0961C4.83615 19.0545 4.95138 18.9839 5.04604 18.8901L16.7446 7.1896Z" fill="#B8B8B8"/>
</svg>
