<svg width="70" height="35" viewBox="0 0 70 35" fill="none" xmlns="http://www.w3.org/2000/svg">
<rect width="70" height="35" rx="10" fill="#F3F3F3"/>
<path d="M44.7495 9.97297C44.9099 10.1339 45 10.3518 45 10.579C45 10.8062 44.9099 11.0242 44.7495 11.1851L42.9586 12.9775L39.5244 9.54375L41.3153 7.75134C41.4763 7.59041 41.6946 7.5 41.9223 7.5C42.15 7.5 42.3683 7.59041 42.5293 7.75134L44.7495 9.97125V9.97297ZM41.7446 14.1896L38.3104 10.7559L26.6119 22.4546C26.5174 22.5491 26.4462 22.6643 26.4041 22.7911L25.0218 26.9356C24.9968 27.0112 24.9932 27.0922 25.0116 27.1697C25.0299 27.2472 25.0694 27.318 25.1257 27.3743C25.182 27.4306 25.2529 27.4701 25.3303 27.4884C25.4078 27.5068 25.4889 27.5032 25.5644 27.4782L29.7095 26.0961C29.8362 26.0545 29.9514 25.9839 30.046 25.8901L41.7446 14.1896Z" fill="#B8B8B8"/>
</svg>
