<svg width="18" height="18" viewBox="0 0 18 18" fill="none" xmlns="http://www.w3.org/2000/svg">
<path d="M17.7745 2.22567C17.9189 2.37049 18 2.56663 18 2.77112C18 2.97561 17.9189 3.17175 17.7745 3.31657L16.1627 4.92974L13.0719 1.83938L14.6838 0.226204C14.8287 0.0813658 15.0252 0 15.2301 0C15.435 0 15.6315 0.0813658 15.7764 0.226204L17.7745 2.22413V2.22567ZM15.0701 6.02064L11.9794 2.93027L1.45067 13.4591C1.36562 13.5442 1.30159 13.6479 1.26368 13.762L0.0196508 17.4921C-0.00291059 17.5601 -0.00611396 17.633 0.010399 17.7027C0.026912 17.7724 0.0624909 17.8362 0.113158 17.8869C0.163826 17.9375 0.227586 17.9731 0.297311 17.9896C0.367037 18.0061 0.439981 18.0029 0.507991 17.9804L4.23854 16.7365C4.35254 16.699 4.45624 16.6355 4.54144 16.5511L15.0701 6.02064Z" fill="#B8B8B8"/>
</svg>
