<svg width="25" height="25" viewBox="0 0 25 25" fill="none" xmlns="http://www.w3.org/2000/svg">
<path d="M21.0938 1.5625H3.90625C2.61182 1.5625 1.5625 2.61182 1.5625 3.90625V21.0938C1.5625 22.3882 2.61182 23.4375 3.90625 23.4375H21.0938C22.3882 23.4375 23.4375 22.3882 23.4375 21.0938V3.90625C23.4375 2.61182 22.3882 1.5625 21.0938 1.5625ZM10.2596 12.798C5.83149 9.58433 5.87661 9.57622 4.6875 8.65073V7.42188C4.6875 6.77466 5.21216 6.25 5.85938 6.25H19.1406C19.7878 6.25 20.3125 6.77466 20.3125 7.42188V8.65073C19.1225 9.57695 19.1683 9.58452 14.7404 12.7981C14.2277 13.1719 13.2076 14.0735 12.5 14.0625C11.7918 14.0731 10.7731 13.1725 10.2596 12.798ZM20.3125 10.6335V17.5781C20.3125 18.2253 19.7878 18.75 19.1406 18.75H5.85938C5.21216 18.75 4.6875 18.2253 4.6875 17.5781V10.6335C5.36904 11.1606 6.31489 11.8658 9.34097 14.062C10.0325 14.5669 11.1952 15.6315 12.4999 15.625C13.8127 15.6315 14.9919 14.5487 15.66 14.0612C18.6853 11.8657 19.631 11.1605 20.3125 10.6335Z" fill="#A4A1AA"/>
</svg>
