<svg width="25" height="25" viewBox="0 0 25 25" fill="none" xmlns="http://www.w3.org/2000/svg">
<path d="M12.5046 6.88452C9.39917 6.88452 6.89429 9.3894 6.89429 12.4949C6.89429 15.6003 9.39917 18.1052 12.5046 18.1052C15.6101 18.1052 18.115 15.6003 18.115 12.4949C18.115 9.3894 15.6101 6.88452 12.5046 6.88452ZM12.5046 16.1423C10.4978 16.1423 8.85718 14.5066 8.85718 12.4949C8.85718 10.4832 10.4929 8.84741 12.5046 8.84741C14.5164 8.84741 16.1521 10.4832 16.1521 12.4949C16.1521 14.5066 14.5115 16.1423 12.5046 16.1423ZM19.6531 6.65503C19.6531 7.38257 19.0671 7.96362 18.3445 7.96362C17.6169 7.96362 17.0359 7.37769 17.0359 6.65503C17.0359 5.93237 17.6218 5.34644 18.3445 5.34644C19.0671 5.34644 19.6531 5.93237 19.6531 6.65503ZM23.3689 7.98315C23.2859 6.23022 22.8855 4.67749 21.6013 3.39819C20.322 2.1189 18.7693 1.71851 17.0164 1.63062C15.2097 1.52808 9.79468 1.52808 7.98804 1.63062C6.23999 1.71362 4.68726 2.11401 3.40308 3.39331C2.1189 4.67261 1.72339 6.22534 1.6355 7.97827C1.53296 9.78491 1.53296 15.2 1.6355 17.0066C1.71851 18.7595 2.1189 20.3123 3.40308 21.5916C4.68726 22.8708 6.23511 23.2712 7.98804 23.3591C9.79468 23.4617 15.2097 23.4617 17.0164 23.3591C18.7693 23.2761 20.322 22.8757 21.6013 21.5916C22.8806 20.3123 23.281 18.7595 23.3689 17.0066C23.4714 15.2 23.4714 9.78979 23.3689 7.98315ZM21.0349 18.9451C20.6541 19.9021 19.9167 20.6394 18.9548 21.0251C17.5144 21.5964 14.0964 21.4646 12.5046 21.4646C10.9128 21.4646 7.48999 21.5916 6.05444 21.0251C5.09741 20.6443 4.36011 19.907 3.97437 18.9451C3.40308 17.5046 3.53491 14.0867 3.53491 12.4949C3.53491 10.9031 3.40796 7.48022 3.97437 6.04468C4.35522 5.08765 5.09253 4.35034 6.05444 3.9646C7.49487 3.39331 10.9128 3.52515 12.5046 3.52515C14.0964 3.52515 17.5193 3.39819 18.9548 3.9646C19.9119 4.34546 20.6492 5.08276 21.0349 6.04468C21.6062 7.48511 21.4744 10.9031 21.4744 12.4949C21.4744 14.0867 21.6062 17.5095 21.0349 18.9451Z" fill="#A4A1AA"/>
</svg>
