<svg width="32" height="32" viewBox="0 0 32 32" fill="none" xmlns="http://www.w3.org/2000/svg">
<path d="M16 3.25C20.125 3.25 20.6875 3.25 22.375 3.25C23.875 3.25 24.625 3.625 25.1875 3.8125C25.9375 4.1875 26.5 4.375 27.0625 4.9375C27.625 5.5 28 6.0625 28.1875 6.8125C28.375 7.375 28.5625 8.125 28.75 9.625C28.75 11.3125 28.75 11.6875 28.75 16C28.75 20.3125 28.75 20.6875 28.75 22.375C28.75 23.875 28.375 24.625 28.1875 25.1875C27.8125 25.9375 27.625 26.5 27.0625 27.0625C26.5 27.625 25.9375 28 25.1875 28.1875C24.625 28.375 23.875 28.5625 22.375 28.75C20.6875 28.75 20.3125 28.75 16 28.75C11.6875 28.75 11.3125 28.75 9.625 28.75C8.125 28.75 7.375 28.375 6.8125 28.1875C6.0625 27.8125 5.5 27.625 4.9375 27.0625C4.375 26.5 4 25.9375 3.8125 25.1875C3.625 24.625 3.4375 23.875 3.25 22.375C3.25 20.6875 3.25 20.3125 3.25 16C3.25 11.6875 3.25 11.3125 3.25 9.625C3.25 8.125 3.625 7.375 3.8125 6.8125C4.1875 6.0625 4.375 5.5 4.9375 4.9375C5.5 4.375 6.0625 4 6.8125 3.8125C7.375 3.625 8.125 3.4375 9.625 3.25C11.3125 3.25 11.875 3.25 16 3.25ZM16 0.4375C11.6875 0.4375 11.3125 0.4375 9.625 0.4375C7.9375 0.4375 6.8125 0.812501 5.875 1.1875C4.9375 1.5625 4 2.125 3.0625 3.0625C2.125 4 1.75 4.75 1.1875 5.875C0.812501 6.8125 0.625 7.9375 0.4375 9.625C0.4375 11.3125 0.4375 11.875 0.4375 16C0.4375 20.3125 0.4375 20.6875 0.4375 22.375C0.4375 24.0625 0.812501 25.1875 1.1875 26.125C1.5625 27.0625 2.125 28 3.0625 28.9375C4 29.875 4.75 30.25 5.875 30.8125C6.8125 31.1875 7.9375 31.375 9.625 31.5625C11.3125 31.5625 11.875 31.5625 16 31.5625C20.125 31.5625 20.6875 31.5625 22.375 31.5625C24.0625 31.5625 25.1875 31.1875 26.125 30.8125C27.0625 30.4375 28 29.875 28.9375 28.9375C29.875 28 30.25 27.25 30.8125 26.125C31.1875 25.1875 31.375 24.0625 31.5625 22.375C31.5625 20.6875 31.5625 20.125 31.5625 16C31.5625 11.875 31.5625 11.3125 31.5625 9.625C31.5625 7.9375 31.1875 6.8125 30.8125 5.875C30.4375 4.9375 29.875 4 28.9375 3.0625C28 2.125 27.25 1.75 26.125 1.1875C25.1875 0.812501 24.0625 0.625 22.375 0.4375C20.6875 0.4375 20.3125 0.4375 16 0.4375Z" fill="white"/>
<path d="M16 7.9375C11.5 7.9375 7.9375 11.5 7.9375 16C7.9375 20.5 11.5 24.0625 16 24.0625C20.5 24.0625 24.0625 20.5 24.0625 16C24.0625 11.5 20.5 7.9375 16 7.9375ZM16 21.25C13.1875 21.25 10.75 19 10.75 16C10.75 13.1875 13 10.75 16 10.75C18.8125 10.75 21.25 13 21.25 16C21.25 18.8125 18.8125 21.25 16 21.25Z" fill="white"/>
<path d="M24.25 9.625C25.2855 9.625 26.125 8.78553 26.125 7.75C26.125 6.71447 25.2855 5.875 24.25 5.875C23.2145 5.875 22.375 6.71447 22.375 7.75C22.375 8.78553 23.2145 9.625 24.25 9.625Z" fill="white"/>
</svg>
