<svg width="32" height="29" viewBox="0 0 32 29" fill="none" xmlns="http://www.w3.org/2000/svg">
<path d="M15.6095 0C6.98969 0 0 5.54544 0 12.3887C0 16.8133 2.92019 20.6892 7.31806 22.8897L5.73483 28.5826C5.73483 28.5826 5.70551 28.8481 5.87556 28.9484C6.04561 29.0487 6.25085 28.972 6.25085 28.972C6.74341 28.9012 11.9388 25.2258 12.8477 24.5887C13.7448 24.7185 14.6772 24.7834 15.6213 24.7834C24.2411 24.7834 31.2308 19.2379 31.2308 12.3946C31.2308 5.55134 24.2294 0 15.6095 0Z" fill="black"/>
<path d="M6.97801 16.7068C6.47958 16.7068 6.07498 16.3175 6.07498 15.8396V10.4535H4.66766C4.18096 10.4535 3.78809 10.0582 3.78809 9.56854C3.78809 9.07889 4.18683 8.68363 4.66766 8.68363H9.2825C9.76919 8.68363 10.1621 9.07889 10.1621 9.56854C10.1621 10.0582 9.76333 10.4535 9.2825 10.4535H7.87518V15.8396C7.87518 16.3116 7.46471 16.7068 6.97215 16.7068H6.97801ZM14.8766 16.695C14.5013 16.695 14.214 16.5416 14.126 16.2939L13.6804 15.114H10.9361L10.4904 16.2939C10.4025 16.5416 10.1152 16.695 9.73988 16.695C9.54051 16.695 9.347 16.6537 9.16522 16.577C8.91894 16.459 8.67852 16.1464 8.95412 15.291L11.1061 9.58624C11.2586 9.14969 11.7219 8.70133 12.3082 8.68953C12.8946 8.67773 13.3637 9.14969 13.5103 9.58624L15.6623 15.291C15.9379 16.1464 15.6975 16.4708 15.4512 16.577C15.2753 16.6596 15.076 16.695 14.8766 16.695ZM13.2054 13.5093L12.3082 10.9372L11.4111 13.5093H13.2054ZM17.1107 16.577C16.6416 16.577 16.2487 16.2054 16.2487 15.7511V9.58624C16.2487 9.08479 16.6592 8.67773 17.1694 8.67773C17.6795 8.67773 18.09 9.09069 18.09 9.58624V14.9075H20.0016C20.4707 14.9075 20.8636 15.2792 20.8636 15.7334C20.8636 16.1877 20.4766 16.5593 20.0016 16.5593L17.1107 16.577ZM21.2095 15.7865V9.59214C21.2095 9.09069 21.62 8.68363 22.1126 8.68363C22.6051 8.68363 23.0156 9.09659 23.0156 9.59214V11.5389L25.537 9.0022C25.8146 8.72296 26.3393 8.74744 26.657 9.0671C26.9555 9.36736 27.0331 9.87491 26.7215 10.1939L24.6575 12.2587L26.874 15.2084C27.1718 15.5919 27.0996 16.1893 26.6981 16.4708C26.3023 16.7658 25.7208 16.6675 25.4374 16.2939L23.3264 13.4798L23.0156 13.7925V15.7688C23.0156 16.946 21.2095 16.9913 21.2095 15.7865Z" fill="#FFE812"/>
</svg>
