<svg width="28" height="28" viewBox="0 0 28 28" fill="none" xmlns="http://www.w3.org/2000/svg">
<path fill-rule="evenodd" clip-rule="evenodd" d="M14.8356 5.85214C16.8051 3.88262 20.0618 3.88262 22.0314 5.85214C24.0009 7.82165 24.0009 11.0783 22.0314 13.0479L18.437 16.6422C16.7263 18.4946 13.9424 18.592 12.0246 17.3134C11.3544 16.8666 11.1733 15.9612 11.6201 15.2911C12.0668 14.6209 12.9723 14.4398 13.6424 14.8866C14.515 15.4683 15.6795 15.3397 16.3044 14.6524C16.32 14.6352 16.3359 14.6185 16.3523 14.6021L19.969 10.9855C20.7994 10.155 20.7994 8.74502 19.969 7.91453C19.1682 7.11378 17.8287 7.08511 16.9894 7.82853L16.8469 8.04227C16.4001 8.71242 15.4947 8.8935 14.8246 8.44674C14.1544 7.99998 13.9733 7.09454 14.4201 6.4244L14.6534 6.0744C14.7067 5.99449 14.7677 5.92004 14.8356 5.85214Z" fill="white"/>
<path fill-rule="evenodd" clip-rule="evenodd" d="M9.51902 11.2877C11.2366 9.72628 13.8799 9.31636 15.925 10.8502C16.5693 11.3334 16.6999 12.2475 16.2167 12.8918C15.7334 13.5362 14.8193 13.6667 14.175 13.1835C13.4292 12.6241 12.3564 12.6727 11.5119 13.4182L7.93077 17.1149L7.91453 17.1314C7.08405 17.9618 7.08405 19.3718 7.91453 20.2023C8.74502 21.0328 10.155 21.0328 10.9855 20.2023L12.0167 21.2335L10.9855 20.2023L11.3355 19.8523C11.905 19.2828 12.8284 19.2828 13.3979 19.8523C13.9674 20.4218 13.9674 21.3452 13.3979 21.9147L13.0479 22.2647C11.0783 24.2342 7.82165 24.2342 5.85214 22.2647C3.88558 20.2981 3.88263 17.0483 5.84327 15.0778L9.45257 11.3521C9.47403 11.33 9.49619 11.3085 9.51902 11.2877Z" fill="white"/>
</svg>
