<svg width="26" height="26" viewBox="0 0 26 26" fill="none" xmlns="http://www.w3.org/2000/svg">
<path fill-rule="evenodd" clip-rule="evenodd" d="M13 0.5C13.6904 0.5 14.25 1.05964 14.25 1.75V11.75H24.25C24.9404 11.75 25.5 12.3096 25.5 13C25.5 13.6904 24.9404 14.25 24.25 14.25H14.25V24.25C14.25 24.9404 13.6904 25.5 13 25.5C12.3096 25.5 11.75 24.9404 11.75 24.25V14.25H1.75C1.05964 14.25 0.5 13.6904 0.5 13C0.5 12.3096 1.05964 11.75 1.75 11.75H11.75V1.75C11.75 1.05964 12.3096 0.5 13 0.5Z" fill="white" stroke="white" stroke-linecap="round" stroke-linejoin="round"/>
</svg>
