<svg xmlns="http://www.w3.org/2000/svg" width="32" height="32" viewBox="0 0 32 32" fill="none">
<circle cx="16" cy="16" r="16" fill="#FEE500"/>
<path d="M16.0432 7.72168C11.0652 7.72168 7.05078 10.9332 7.05078 14.8321C7.05078 17.3628 8.7208 19.5788 11.2258 20.8441L10.378 24.0108C10.362 24.0582 10.3595 24.1091 10.3709 24.1579C10.3822 24.2067 10.4069 24.2514 10.4422 24.2869C10.4937 24.3323 10.5599 24.3574 10.6285 24.3576C10.6854 24.353 10.7393 24.3305 10.7826 24.2933L14.431 21.8333C14.9695 21.9076 15.5124 21.9462 16.056 21.9489C21.0275 21.9489 25.0484 18.7373 25.0484 14.8321C25.0484 10.9268 21.0147 7.72168 16.0432 7.72168Z" fill="#392020"/>
<path d="M10.1954 13.7084H9.21263C9.09083 13.7119 8.97053 13.6807 8.86578 13.6184C8.81928 13.5893 8.7793 13.5509 8.74835 13.5055C8.7174 13.4602 8.69615 13.409 8.68593 13.3551C8.68281 13.3209 8.68281 13.2865 8.68593 13.2524C8.68288 13.1884 8.6953 13.1246 8.72213 13.0665C8.74897 13.0083 8.78943 12.9575 8.84009 12.9183C8.95207 12.8372 9.08723 12.7944 9.22548 12.7963H12.1865C12.3093 12.792 12.4304 12.8256 12.5334 12.8926C12.581 12.9205 12.6218 12.9586 12.6529 13.0041C12.684 13.0497 12.7046 13.1015 12.7132 13.156C12.7164 13.188 12.7164 13.2203 12.7132 13.2524C12.7163 13.3173 12.7039 13.3819 12.6771 13.4411C12.6503 13.5003 12.6099 13.5522 12.5591 13.5927C12.4498 13.6737 12.316 13.7146 12.1801 13.7084H11.2295V17.087C11.2334 17.1589 11.2222 17.2309 11.1968 17.2983C11.1714 17.3658 11.1322 17.4273 11.0818 17.4788C11.0334 17.528 10.9753 17.5666 10.9111 17.5921C10.847 17.6175 10.7782 17.6292 10.7092 17.6265C10.5886 17.6299 10.4705 17.5914 10.3752 17.5173C10.2845 17.445 10.2229 17.3423 10.2018 17.2283C10.1954 17.1814 10.1954 17.1338 10.2018 17.087L10.1954 13.7084Z" fill="#FEE500"/>
<path d="M12.9992 13.0465C13.0275 12.9408 13.0938 12.8493 13.1855 12.7896C13.2832 12.7342 13.3945 12.7075 13.5067 12.7125H13.7507C13.8698 12.7082 13.9876 12.7372 14.0912 12.796C14.2009 12.8698 14.2788 12.9821 14.3096 13.1107L15.5942 16.7398C15.6275 16.8345 15.6554 16.9311 15.6777 17.0289C15.6799 17.0696 15.6799 17.1103 15.6777 17.1509C15.6799 17.2135 15.6683 17.2758 15.6439 17.3335C15.6195 17.3912 15.5828 17.4429 15.5364 17.4849C15.4914 17.5311 15.4373 17.5674 15.3777 17.5917C15.318 17.616 15.2539 17.6278 15.1895 17.6262C15.0904 17.6361 14.991 17.6123 14.9071 17.5587C14.8232 17.5051 14.7597 17.4248 14.7271 17.3308L14.4573 16.5408H12.768L12.4982 17.3308C12.4663 17.4267 12.4021 17.5085 12.3166 17.5624C12.2311 17.6163 12.1296 17.6388 12.0293 17.6262C11.9207 17.6291 11.8143 17.5951 11.7274 17.5299C11.6428 17.4625 11.5857 17.3666 11.5669 17.2601C11.5635 17.2238 11.5635 17.1872 11.5669 17.1509C11.5558 17.0872 11.5558 17.022 11.5669 16.9583C11.5669 16.8876 11.6118 16.8105 11.6375 16.7398L12.9992 13.0465ZM13.6415 13.888L13.0313 15.8149H14.2453L13.6415 13.888Z" fill="#FEE500"/>
<path d="M15.8248 13.253C15.8183 13.1089 15.8691 12.968 15.9661 12.8612C16.0154 12.8115 16.0746 12.7726 16.1399 12.7471C16.2052 12.7217 16.2751 12.7102 16.3451 12.7134C16.4654 12.712 16.5828 12.7504 16.6791 12.8226C16.7683 12.898 16.8275 13.0028 16.8461 13.1181C16.8524 13.1628 16.8524 13.2083 16.8461 13.253V16.6316H18.6124C18.7349 16.63 18.8552 16.6634 18.9593 16.7279C19.006 16.7567 19.0462 16.7951 19.0772 16.8405C19.1082 16.8859 19.1293 16.9372 19.1391 16.9913C19.1391 16.9913 19.1391 17.0555 19.1391 17.0876C19.1422 17.1516 19.1298 17.2153 19.1029 17.2734C19.0761 17.3316 19.0356 17.3825 18.985 17.4216C18.873 17.5027 18.7378 17.5455 18.5996 17.5436H16.4285C16.2903 17.5525 16.1528 17.5165 16.0367 17.4409C15.9329 17.3633 15.8637 17.2479 15.844 17.1198C15.8393 17.0492 15.8393 16.9783 15.844 16.9078L15.8248 13.253Z" fill="#FEE500"/>
<path d="M19.2542 13.2526C19.2504 13.1088 19.3008 12.969 19.3955 12.8608C19.4918 12.7733 19.6153 12.7216 19.7452 12.7146C19.8751 12.7076 20.0034 12.7456 20.1085 12.8222C20.1997 12.8969 20.2612 13.0016 20.2819 13.1176C20.2851 13.1625 20.2851 13.2077 20.2819 13.2526V14.8262L21.907 12.9506C21.9696 12.8866 22.0361 12.8266 22.1061 12.7708C22.1721 12.7315 22.2477 12.7115 22.3245 12.713C22.4368 12.7124 22.5465 12.746 22.6392 12.8093C22.6829 12.8387 22.7202 12.8767 22.7489 12.9208C22.7776 12.965 22.7971 13.0144 22.8062 13.0663C22.8088 13.079 22.8088 13.0921 22.8062 13.1048C22.8031 13.1197 22.8031 13.135 22.8062 13.1498C22.806 13.2174 22.7883 13.2838 22.7548 13.3425C22.7208 13.4047 22.6798 13.4628 22.6328 13.5159L21.5666 14.6849L22.8512 16.6761V16.7403C22.9179 16.8323 22.9699 16.9342 23.0053 17.0422V17.0743C23.0128 17.1487 23.0021 17.2239 22.9741 17.2932C22.9461 17.3626 22.9017 17.4241 22.8448 17.4725C22.7376 17.5535 22.6065 17.5965 22.4722 17.5946C22.383 17.5983 22.2944 17.5783 22.2153 17.5368C22.1298 17.4794 22.0593 17.4023 22.0098 17.312L20.8151 15.385L20.2434 15.9824V17.055C20.2472 17.1987 20.1968 17.3386 20.1021 17.4468C20.0513 17.4964 19.991 17.5352 19.9247 17.5606C19.8584 17.586 19.7876 17.5976 19.7167 17.5946C19.5982 17.5971 19.4824 17.5585 19.3891 17.4854C19.2984 17.4131 19.2368 17.3105 19.2157 17.1964C19.2094 17.1495 19.2094 17.1019 19.2157 17.055L19.2542 13.2526Z" fill="#FEE500"/>
</svg>