<svg xmlns="http://www.w3.org/2000/svg" width="32" height="32" viewBox="0 0 32 32" fill="none">
<path d="M0 16C0 24.8366 7.16344 32 16 32C24.8366 32 32 24.8366 32 16C32 7.16344 24.8366 0 16 0C7.16344 0 0 7.16344 0 16Z" fill="#231E1B"/>
<path fill-rule="evenodd" clip-rule="evenodd" d="M15.9755 8.19238C11.5719 8.19238 8 11.7642 8 16.1679C8 19.6909 10.2997 22.6756 13.4312 23.752C13.8226 23.8009 13.9694 23.5563 13.9694 23.3606C13.9694 23.1649 13.9694 22.6756 13.9694 21.9905C11.7676 22.4798 11.2783 20.9141 11.2783 20.9141C10.9358 19.9844 10.3976 19.7398 10.3976 19.7398C9.66361 19.2505 10.4465 19.2505 10.4465 19.2505C11.2294 19.2994 11.6697 20.0823 11.6697 20.0823C12.4037 21.3055 13.5291 20.963 13.9694 20.7673C14.0183 20.2291 14.263 19.8866 14.4587 19.6909C12.6972 19.4951 10.8379 18.8101 10.8379 15.7276C10.8379 14.8468 11.1315 14.1618 11.6697 13.5746C11.6208 13.4279 11.3272 12.5961 11.7676 11.5196C11.7676 11.5196 12.4526 11.3239 13.9694 12.3514C14.6055 12.1557 15.2905 12.1068 15.9755 12.1068C16.6606 12.1068 17.3456 12.2046 17.9817 12.3514C19.4985 11.3239 20.1835 11.5196 20.1835 11.5196C20.6239 12.5961 20.3303 13.4279 20.2813 13.6236C20.7706 14.1618 21.1131 14.8957 21.1131 15.7765C21.1131 18.859 19.2538 19.4951 17.4924 19.6909C17.7859 19.9355 18.0306 20.4248 18.0306 21.1587C18.0306 22.2352 18.0306 23.067 18.0306 23.3606C18.0306 23.5563 18.1774 23.8009 18.5688 23.752C21.7492 22.6756 24 19.6909 24 16.1679C23.9511 11.7642 20.3792 8.19238 15.9755 8.19238Z" fill="white"/>
</svg>