<svg width="14" height="14" viewBox="0 0 14 14" fill="none" xmlns="http://www.w3.org/2000/svg">
<path fill-rule="evenodd" clip-rule="evenodd" d="M0.363961 0.364555C0.715433 0.0130824 1.28528 0.0130831 1.63675 0.364555L6.72792 5.45572L11.8191 0.364554C12.1706 0.013083 12.7404 0.0130824 13.0919 0.364555C13.4434 0.716027 13.4434 1.28588 13.0919 1.63735L8.00071 6.72852L13.0919 11.8197C13.4434 12.1712 13.4434 12.741 13.0919 13.0925C12.7404 13.4439 12.1706 13.4439 11.8191 13.0925L6.72792 8.00131L1.63675 13.0925C1.28528 13.4439 0.715433 13.4439 0.363961 13.0925C0.0124886 12.741 0.0124886 12.1712 0.363961 11.8197L5.45513 6.72852L0.363961 1.63735C0.0124886 1.28588 0.0124886 0.716027 0.363961 0.364555Z" fill="black"/>
</svg>
